<?xml version="1.0" encoding="UTF-8"?>
<svg width="158.93mm" height="158.93mm" version="1.1" viewBox="0 0 158.93 158.93" xmlns="http://www.w3.org/2000/svg">
 <g transform="translate(752.13 138.82)">
  <g transform="translate(-1233 -168.99)">
   <g transform="matrix(.26458 0 0 .26458 492.55 40.281)">
    <path d="m29.888 131.91 222.54-110.99c2.093-1.044 4.554-1.045 6.647-3e-3l222.98 110.99c7.047 3.508 4.551 14.125-3.321 14.125h-445.52c-7.869 0-10.368-10.61-3.326-14.122zm452.91 22.357h-453.6c-3.976 0-7.2 2.223-7.2 6.199v59.667c0 3.976 3.224 7.2 7.2 7.2h15.3v219.42c0 7.953 6.447 14.4 14.4 14.4h394.2c7.953 0 14.4-6.447 14.4-14.4v-219.42h15.3c3.976 0 7.2-3.224 7.2-7.2v-59.667c0-3.977-3.224-6.199-7.2-6.199z" fill="#dadbdc"/>
    <path d="m488.37 504.13h-464.75c-10.413 0-16.857-11.347-11.521-20.29l18.225-30.545c2.421-4.057 6.797-6.542 11.521-6.542h428.3c4.724 0 9.1 2.485 11.521 6.542l18.225 30.545c5.335 8.942-1.108 20.29-11.521 20.29z" fill="#999"/>
    <path d="m332.3 484.01-153 0.204-0.05-37.36 153-0.204z" fill="#c8cacb"/>
    <path d="m354.77 504.13h-198v-20.667c0-3.976 3.224-7.2 7.2-7.2h183.6c3.976 0 7.2 3.224 7.2 7.2z" fill="#ebeced"/>
    <path d="m127.88 446.75h-45.379v-241.75h45.379zm100.54-241.75h-45.379v241.75h45.379zm100.54 0h-45.379v241.75h45.379zm100.54 0h-45.379v241.75h45.379z" fill="#767777"/>
    <path d="m496.3 170.42h-480.6c-3.976 0-7.2-3.224-7.2-7.2v-18.909c0-3.976 3.224-7.2 7.2-7.2h480.6c3.976 0 7.2 3.224 7.2 7.2v18.909c0 3.976-3.224 7.2-7.2 7.2zm7.2 60.955v-19.909c0-3.976-3.224-7.2-7.2-7.2h-480.6c-3.976 0-7.2 3.224-7.2 7.2v19.909c0 3.976 3.224 7.2 7.2 7.2h480.6c3.976 0 7.2-3.224 7.2-7.2z" fill="#999"/>
   </g>
  </g>
 </g>
</svg>
