<?xml version="1.0" encoding="UTF-8"?>
<svg width="158.93mm" height="158.93mm" version="1.1" viewBox="0 0 158.93 158.93" xmlns="http://www.w3.org/2000/svg">
 <g transform="translate(752.13 138.82)">
  <g transform="matrix(3.0752 0 0 3.0752 -728.02 -114.71)">
   <circle cx="18" cy="19" r="17" fill="#f4900c"/>
   <circle cx="18" cy="17" r="17" fill="#ffcc4d"/>
   <circle cx="18" cy="18" r="14" fill="#ffe8b6"/>
   <circle cx="18" cy="17" r="14" fill="#ffac33"/>
   <path d="m9.543 10.856c0-0.545 0.535-0.763 0.535-0.763l7.878-3.7 7.953 3.7s0.548 0.122 0.548 0.767v0.641h-16.914z" fill="#ffe8b6"/>
   <path d="m25.929 12.836c0-0.584-0.505-1.057-1.127-1.057h-13.673c-0.623 0-1.057 0.473-1.057 1.057 0 0.397 0.204 0.739 0.529 0.92v0.666h2.114v-0.529h2.114v0.529h2.114v-0.529h2.114v0.529h2.114v-0.529h2.114v0.529h2.115v-0.693c0.317-0.188 0.529-0.517 0.529-0.893zm1.585 11.164c0 0.438-0.355 0.793-0.793 0.793h-17.442c-0.438 0-0.793-0.355-0.793-0.793s0.355-0.793 0.793-0.793h17.443c0.437 0 0.792 0.355 0.792 0.793z" fill="#f4900c"/>
   <path d="m26.457 12.2c0 0.292-0.236 0.529-0.529 0.529h-15.857c-0.292 0-0.529-0.237-0.529-0.529s0.237-0.529 0.529-0.529l15.857 3e-3c0.293 1e-3 0.529 0.234 0.529 0.526zm-14.271 0.614h11.629v1.186h-11.629z" fill="#f4900c"/>
   <path d="m12.714 20.829c0 0.584-0.316 1.057-0.705 1.057h-0.705c-0.389 0-0.705-0.473-0.705-1.057v-8.014c0-0.584 0.316-1.057 0.705-1.057h0.705c0.389 0 0.705 0.473 0.705 1.057zm12.686 0c0 0.584-0.315 1.057-0.705 1.057h-0.705c-0.389 0-0.705-0.473-0.705-1.057v-8.014c0-0.584 0.315-1.057 0.705-1.057h0.705c0.389 0 0.705 0.473 0.705 1.057zm-8.457 0c0 0.584-0.316 1.057-0.705 1.057h-0.705c-0.389 0-0.705-0.473-0.705-1.057v-8.014c0-0.584 0.316-1.057 0.705-1.057h0.705c0.389 0 0.705 0.473 0.705 1.057zm4.228 0c0 0.584-0.316 1.057-0.705 1.057h-0.704c-0.389 0-0.705-0.473-0.705-1.057v-8.014c0-0.584 0.316-1.057 0.705-1.057h0.704c0.389 0 0.705 0.473 0.705 1.057z" fill="#ffd983"/>
   <path d="m25.929 21.357c0 0.584-0.473 1.057-1.057 1.057h-13.743c-0.584 0-1.057-0.473-1.057-1.057s0.473-1.057 1.057-1.057h13.743c0.583 0 1.057 0.473 1.057 1.057z" fill="#ffcc4d"/>
   <path d="m26.986 22.414c0 0.584-0.473 1.057-1.057 1.057h-15.858c-0.584 0-1.057-0.473-1.057-1.057s0.473-1.057 1.057-1.057h15.857c0.584 0 1.058 0.473 1.058 1.057z" fill="#ffd983"/>
   <path d="m27.514 23.207c0 0.438-0.355 0.793-0.793 0.793h-17.442c-0.438 0-0.793-0.355-0.793-0.793s0.355-0.793 0.793-0.793h17.443c0.437 0 0.792 0.355 0.792 0.793z" fill="#ffd983"/>
   <path d="m25.929 12.286c0-0.584-0.505-1.057-1.127-1.057h-13.673c-0.623 0-1.057 0.473-1.057 1.057 0 0.397 0.204 0.739 0.529 0.92v0.666h2.114v-0.529h2.114v0.529h2.114v-0.529h2.114v0.529h2.114v-0.529h2.114v0.529h2.115v-0.693c0.317-0.188 0.529-0.517 0.529-0.893z" fill="#ffcc4d"/>
   <path d="m9.543 11.463c0-0.545 0.535-0.763 0.535-0.763l7.878-3.7 7.953 3.7s0.548 0.122 0.548 0.767v0.291h-16.914z" fill="#ffd983"/>
   <path d="m18 8.343s-5.455 2.571-5.999 2.803c-0.545 0.231-0.363 0.611 1e-3 0.611h11.97c0.562 0 0.429-0.429-0.017-0.661-0.446-0.231-5.955-2.753-5.955-2.753z" fill="#ffac33"/>
   <path d="m26.457 11.757c0 0.292-0.236 0.529-0.529 0.529h-15.857c-0.292 0-0.529-0.237-0.529-0.529s0.237-0.529 0.529-0.529l15.857 3e-3c0.293 1e-3 0.529 0.234 0.529 0.526z" fill="#ffd983"/>
  </g>
 </g>
</svg>
