<?xml version="1.0" encoding="UTF-8"?>
<svg width="158.93mm" height="158.93mm" version="1.1" viewBox="0 0 158.93 158.93" xmlns="http://www.w3.org/2000/svg">
 <g transform="translate(752.13 138.82)">
  <g transform="translate(-920.43 -487.58)">
   <g transform="matrix(1.2384 0 0 1.2384 -249.91 -98.2)" stroke-width="2.4832">
    <path d="m445 438.73c7e-3 1.3732-1.1 2.4882-2.4782 2.4906l-12.416 0.0323c-1.3707 5e-3 -2.4807-1.1075-2.4832-2.4757-7e-3 -1.3782 1.1025-2.4881 2.4708-2.4931l12.416-0.0323c1.3732 0 2.4882 1.105 2.4906 2.4782zm-3.9408-13.63c0.59099 1.2391 0.0621 2.7191-1.1795 3.3101l-11.217 5.3264c-1.2366 0.58603-2.7166 0.0571-3.3026-1.182-0.59348-1.2366-0.0621-2.7166 1.177-3.3101l11.214-5.3239c1.2416-0.58603 2.7191-0.0596 3.3076 1.1795zm0.067 27.283c0.58107-1.2441 0.0497-2.7216-1.1919-3.3026l-11.241-5.2693c-1.2441-0.58355-2.7191-0.0497-3.3026 1.1919-0.58107 1.2441-0.0472 2.7216 1.1969 3.3026l11.239 5.2718c1.2391 0.58107 2.7216 0.0472 3.3001-1.1944z" fill="#0fc"/>
    <path d="m425.48 418.16c-3.5261-1.0404-6.6872-3.8415-7.7872-5.5872-1.8872-2.9997 0.38985-3.7769-0.37993-12.14-0.70771-7.6556-11.249-15.89-24.062-16.727-5.8255-0.37993-11.884 0.80952-18.092 4.204-15.942 8.7184-22.259 27.146-9.9476 44.943 11.1 16.041 0.68536 23.29 0.68536 23.29s0.4122 3.3771 7.236 7.9164c6.8263 4.5368 15.2 1.4601 15.2 1.4601s2.7613-9.8185 11.79-8.9146c6.4712 0.95354 15.56-0.32033 17.857-2.5428 2.148-2.0784-0.37496-4.6833 1.3384-10.489-5.8727-0.5761-9.1009-3.3746-9.4112-7.3204 6.5183 0.63321 9.2076-1.4353 11.07-3.7124-0.0521-1.3409-0.18624-4.1866-0.31536-6.0937 5.7659-1.6687 7.976-7.3552 4.8198-8.2864z" fill="#40a"/>
   </g>
  </g>
 </g>
</svg>
