<?xml version="1.0" encoding="UTF-8"?>
<svg width="158.93mm" height="158.93mm" version="1.1" viewBox="0 0 158.93 158.93" xmlns="http://www.w3.org/2000/svg">
 <g transform="translate(752.13 138.82)">
  <g transform="translate(-1042.5 -169.19)">
   <g transform="matrix(.26458 0 0 .26458 301.83 35.795)">
    <path d="m465.62 390.73c2.375-4.033-140.63-133.4-140.63-133.4-17.984-15.829-29.211-16.078-53.943 0 0 0-199.39 129.27-198.82 133.24l-0.041 0.029c0.01 0.035 0.034 0.058 0.05 0.09 0.589 3.992 1.91 7.668 3.859 10.884 0.832 1.373 1.944 2.523 2.995 3.719l-0.075 0.049c0.084 0.093 0.214 0.136 0.298 0.229 4.476 4.962 10.787 8.176 18.379 9.093 0.119 0.015 0.203 0.078 0.322 0.093h0.47c1.16 0.113 2.224 0.398 3.438 0.398h323.46c15.927 0 31.615-10.016 40.049-24.057 0.087-0.105 0.202-0.18 0.284-0.287z" fill="#96a9b2"/>
    <path d="m301.5 242.48-228.17 146.99 45.592-208.23c4.444-20.296 24.496-36.747 44.792-36.747h318.47c20.296 0 33.145 16.45 28.701 36.747l-45.592 208.23z" fill="#b9c5c6"/>
    <path d="m124.02 168.46 138.55 131.43c17.707 15.585 28.761 15.831 53.112 0l195.8-131.22c-1.748-5.254-5.179-9.405-9.416-12.715l2.693-1.801c-4.491-5.105-10.935-8.416-18.706-9.27l-326.33 0.011c-8.12 0.843-16.028 4.165-22.74 9.259l1.892 1.778c-5.621 3.266-10.813 7.345-14.853 12.53z" fill="#edece6"/>
    <path d="m123.9 168.73c-2.339 3.971 138.47 131.35 138.47 131.35 17.707 15.585 28.761 15.831 53.112 0 0 0 196.32-127.27 195.76-131.19l0.041-0.029c-0.01-0.034-0.033-0.057-0.049-0.089-0.58-3.931-1.88-7.549-3.799-10.717-0.819-1.352-1.914-2.484-2.949-3.662l0.074-0.049c-0.083-0.091-0.211-0.134-0.294-0.226-4.407-4.885-10.621-8.05-18.095-8.953-0.117-0.014-0.2-0.077-0.317-0.091h-0.463c-1.142-0.111-2.19-0.392-3.385-0.392h-318.47c-15.682 0-31.128 9.862-39.431 23.686-0.085 0.103-0.199 0.177-0.279 0.283z" fill="#dce2e2"/>
   </g>
   <g transform="matrix(.26458 0 0 .26458 301.83 35.795)" fill="#f00">
    <path d="m94.447 208.62h-80.007c-6.627 0-12-5.373-12-12s5.373-12 12-12h80.007c6.627 0 12 5.373 12 12s-5.372 12-12 12zm-13.108 70.236c0-6.627-5.373-12-12-12h-54.899c-6.627 0-12 5.373-12 12s5.373 12 12 12h54.899c6.628 0 12-5.373 12-12zm-18.215 82.237c0-6.627-5.373-12-12-12h-36.684c-6.627 0-12 5.373-12 12s5.373 12 12 12h36.684c6.627 0 12-5.373 12-12z" fill="#0fc"/>
   </g>
  </g>
 </g>
</svg>
