<?xml version="1.0" encoding="UTF-8"?>
<svg width="158.93mm" height="158.93mm" version="1.1" viewBox="0 0 158.93 158.93" xmlns="http://www.w3.org/2000/svg">
 <g transform="translate(752.13 138.82)">
  <g transform="translate(-562.85 -324.99)">
   <g transform="matrix(.26458 0 0 .26458 -177.33 197.99)" fill="#40a">
    <path d="m378.55 355.65-333.44 145.08c-21.735 8.65-43.335-12.764-34.874-34.572l145.71-338.68" fill="#40a"/>
   </g>
   <g transform="matrix(.26458 0 0 .26458 -173.17 192.7)" fill="#7f2aff">
    <path d="m10.243 466.16 11.58-26.916c0.993-1.514 1.983-3.03 2.977-4.543 57.597-87.744 116.04-174.95 176.48-260.77l67.765 69.46c-51.13 35.102-217.15 206.67-251.92 252.18-7.57-6.963-11.249-18.128-6.872-29.41z" fill="#7f2aff"/>
   </g>
   <g transform="matrix(.26458 0 0 .26458 -177.33 197.99)" fill="#330080">
    <path d="m304.38 204.43c61.854 61.854 95.685 128.31 75.564 148.43-20.121 20.121-86.575-13.71-148.43-75.564s-95.685-128.31-75.564-148.43 86.575 13.709 148.43 75.564z" fill="#330080"/>
   </g>
   <g transform="matrix(.26458 0 0 .26458 -177.33 197.99)">
    <path d="m155.6 327.57c0 6.012-4.874 10.885-10.885 10.885s-10.885-4.873-10.885-10.885 4.873-10.885 10.885-10.885 10.885 4.873 10.885 10.885z" fill="#f7f9aa"/>
    <path d="m501.99 213.16c0 8.628-6.994 15.622-15.622 15.622s-15.622-6.994-15.622-15.622 6.994-15.622 15.622-15.622 15.622 6.994 15.622 15.622zm-104.32 208.02c-8.628 0-15.622 6.994-15.622 15.622s6.994 15.622 15.622 15.622 15.622-6.994 15.622-15.622-6.995-15.622-15.622-15.622z" fill="#ffb636"/>
    <path d="m355.95 79.523c-1.34 9.065-7.197 17.072-16.07 21.968-6.126 3.38-13.33 5.137-20.807 5.137-2.354 0-4.734-0.174-7.117-0.526-5.288-0.782-10.581 0.016-14.52 2.189-1.766 0.974-4.8 3.105-5.293 6.438-0.492 3.333 1.796 6.251 3.203 7.694 3.058 3.135 7.725 5.381 12.849 6.22 0.141 0.015 0.281 0.02 0.422 0.041 21.619 3.196 37.061 20.32 34.421 38.173-1.34 9.066-7.197 17.073-16.071 21.969-6.126 3.38-13.329 5.137-20.806 5.137-2.354 0-4.734-0.174-7.117-0.526-5.287-0.783-10.582 0.015-14.521 2.189-1.766 0.974-4.8 3.105-5.293 6.438-0.79 5.349 5.778 12.411 16.47 13.991 5.817 0.86 9.836 6.273 8.976 12.091-0.782 5.29-5.328 9.092-10.52 9.092-0.519 0-1.043-0.038-1.571-0.116-21.619-3.196-37.06-20.321-34.421-38.173 1.34-9.066 7.197-17.073 16.071-21.969 8.055-4.444 17.972-6.082 27.924-4.611 5.288 0.781 10.58-0.016 14.52-2.189 1.766-0.974 4.8-3.105 5.293-6.438 0.777-5.262-5.577-12.171-15.963-13.898-0.17-0.017-0.341-0.031-0.512-0.056-9.951-1.472-18.971-5.908-25.395-12.493-7.077-7.254-10.367-16.614-9.026-25.681 1.34-9.065 7.197-17.072 16.07-21.968 8.055-4.444 17.972-6.082 27.924-4.611 5.286 0.78 10.581-0.016 14.52-2.189 1.766-0.974 4.8-3.105 5.293-6.438 0.492-3.333-1.796-6.251-3.203-7.694-3.142-3.22-7.977-5.516-13.267-6.297-5.817-0.86-9.836-6.273-8.976-12.091 0.859-5.818 6.274-9.832 12.091-8.977 9.951 1.472 18.971 5.908 25.395 12.493 7.078 7.255 10.368 16.615 9.027 25.681z" fill="#bea4ff"/>
    <path d="m81.731 159.69c0 9.777-7.926 17.703-17.703 17.703s-17.703-7.926-17.703-17.703 7.926-17.703 17.703-17.703 17.703 7.925 17.703 17.703zm316.44-20.453c-11.296 0-20.452 9.157-20.452 20.452s9.157 20.452 20.452 20.452 20.452-9.157 20.452-20.452-9.156-20.452-20.452-20.452zm-182.65 256.66c-11.296 0-20.452 9.157-20.452 20.452s9.157 20.452 20.452 20.452c11.296 0 20.452-9.157 20.452-20.452s-9.156-20.452-20.452-20.452zm271.3-93.646c3.093-5.989 0.745-13.352-5.244-16.445-2.388-1.232-5.238-2.868-8.538-4.761-28.993-16.633-89.319-51.242-160.35 6.109-5.245 4.234-6.063 11.919-1.829 17.163 4.233 5.245 11.917 6.065 17.163 1.829 58.035-46.856 104.88-19.985 132.87-3.928 3.403 1.952 6.617 3.796 9.483 5.276 1.791 0.925 3.705 1.363 5.591 1.363 4.42 0 8.687-2.408 10.855-6.606z" fill="#ff6e83"/>
    <path d="m434.83 62.776c0 6.012-4.874 10.885-10.885 10.885-6.012 0-10.885-4.873-10.885-10.885s4.873-10.885 10.885-10.885c6.012-1e-3 10.885 4.873 10.885 10.885zm-388.51-50.882c-6.012 0-10.885 4.873-10.885 10.885s4.873 10.885 10.885 10.885 10.886-4.873 10.886-10.885-4.874-10.885-10.886-10.885zm170.68 142.06c1.231-2.414 2.749-5.163 4.356-8.073 8.154-14.771 19.32-34.999 19.992-58.559 0.807-28.304-13.934-54.002-43.812-76.38-5.187-3.885-12.539-2.828-16.421 2.357-3.884 5.186-2.829 12.538 2.357 16.421 23.75 17.788 35.01 36.411 34.425 56.933-0.51 17.872-9.697 34.516-17.08 47.889-1.701 3.083-3.309 5.994-4.713 8.747-2.945 5.771-0.654 12.836 5.116 15.781 1.708 0.872 3.529 1.285 5.323 1.285 4.267 0 8.384-2.338 10.457-6.401z" fill="#59cafc"/>
   </g>
  </g>
 </g>
</svg>
