<?xml version="1.0" encoding="UTF-8"?>
<svg width="158.93mm" height="158.93mm" version="1.1" viewBox="0 0 158.93 158.93" xmlns="http://www.w3.org/2000/svg">
 <g transform="translate(752.13 138.82)">
  <g transform="translate(935.44 -308.91)">
   <g transform="matrix(.26458 0 0 .26458 -1675.5 182.27)">
    <circle cx="121.38" cy="163.51" r="97.84" fill="#ffd60d"/>
   </g>
   <g transform="matrix(.26458 0 0 .26458 -1675.5 182.27)" fill="#bea4ff">
    <path d="m438.06 311.24c-5.451 0-10.743 0.675-15.808 1.925 1.13-4.928 1.748-10.052 1.748-15.323 0-37.714-30.573-68.286-68.286-68.286-14.312 0-27.59 4.411-38.564 11.936-12.81-49.355-57.658-85.798-111.02-85.798-63.344 0-114.69 51.35-114.69 114.69-47.624 0-86.232 38.683-86.232 86.308s38.606 86.307 86.23 86.307h346.63c36.343 0 65.805-29.538 65.805-65.881 0-36.344-29.462-65.882-65.805-65.882z" fill="#bea4ff"/>
   </g>
   <g transform="matrix(.26458 0 0 .26458 -1675.5 182.27)">
    <path d="m92.292 256.95c9.19 2.858 18.961 4.398 29.092 4.398 54.036 0 97.841-43.805 97.841-97.841 0-2.387-0.189-4.726-0.357-7.07-4.186-0.463-8.425-0.746-12.734-0.746-58.792 0-107.18 44.257-113.84 101.26z" fill="#d3d638"/>
   </g>
  </g>
 </g>
</svg>
