<?xml version="1.0" encoding="UTF-8"?>
<svg width="158.93mm" height="158.93mm" version="1.1" viewBox="0 0 158.93 158.93" xmlns="http://www.w3.org/2000/svg">
 <g transform="translate(752.13 138.82)">
  <g transform="translate(-696.5 -165.5)" stroke-width=".26458">
   <path d="m69.291 171.96h-83.739c-5.162 0-9.3467-4.1846-9.3467-9.3467v-68.334h102.43v68.335c2.7e-4 5.1618-4.1844 9.3464-9.3464 9.3464z" fill="#60f"/>
   <path d="m78.637 118.4h-102.43v-24.684h102.43zm-11.595-78.072-98.011 29.769 7.1736 23.619 98.011-29.769z" fill="#b9c5c6"/>
   <path d="m-6.0011 118.4h-17.793v-7.9483l10.019-16.736h22.551zm15.526 0h22.551l14.777-24.684h-22.551zm38.077 0h22.551l8.4844-14.173v-10.512h-16.258zm-10.301-69.039 21.313 19.324 15.602-4.739-3.0319-9.9819-12.306-11.157zm-15.121 30.39 21.578-6.5537-21.313-19.324-21.578 6.5537zm-14.856 4.5122-21.313-19.324-16.98 5.157 2.3328 7.6811 14.382 13.04z" fill="#445056"/>
  </g>
 </g>
</svg>
