<?xml version="1.0" encoding="UTF-8"?>
<svg width="158.93mm" height="158.93mm" version="1.1" viewBox="0 0 158.93 158.93" xmlns="http://www.w3.org/2000/svg">
 <g transform="translate(752.13 138.82)">
  <g transform="translate(400.85 -148.51)">
   <g>
    <g transform="matrix(.26458 0 0 .26458 -1141.2 22.548)" fill="#40a">
     <path d="m246.67 20.185-130.79 130.79c6.492 6.444 10.514 15.373 10.514 25.244 0 19.645-15.926 35.571-35.571 35.571s-35.571-15.926-35.571-35.571 15.926-35.571 35.571-35.571c3.447 0 6.776 0.5 9.928 1.415l133.9-133.9c3.319-3.319 8.701-3.319 12.021 0 3.319 3.319 3.319 8.701-1e-3 12.02zm155.42 173.41c0 1.783 1.445 3.228 3.228 3.228h55.667c1.783 0 3.228-1.445 3.228-3.228v-34.759c0-1.783-1.445-3.228-3.228-3.228h-55.667c-1.783 0-3.228 1.445-3.228 3.228z" fill="#40a"/>
    </g>
    <g transform="matrix(.26458 0 0 .26458 -1141.2 22.548)" fill="#60f">
     <path d="m13.624 472.64c0 13.912 11.278 25.19 25.19 25.19h434.37c13.912 0 25.19-11.278 25.19-25.19v-271.23c0-13.912-11.278-25.19-25.19-25.19h-434.37c-13.912 0-25.19 11.278-25.19 25.19z" fill="#60f"/>
    </g>
    <g transform="matrix(.26458 0 0 .26458 -1141.2 22.548)" fill="#bea4ff">
     <rect x="69.082" y="423.24" width="43.475" height="23.713" fill="#bea4ff"/>
    </g>
   </g>
   <g transform="matrix(.26458 0 0 .26458 -1141.2 22.548)">
    <rect x="159.33" y="238.43" width="302" height="6" fill="#1c4c5a"/>
   </g>
   <g transform="matrix(.26458 0 0 .26458 -1141.2 22.548)" fill="#bea4ff">
    <path d="m126.39 255.26c0 19.645-15.926 35.571-35.571 35.571s-35.571-15.926-35.571-35.571 15.926-35.571 35.571-35.571 35.571 15.926 35.571 35.571zm335.24-13.833c0-6.548-5.308-11.857-11.856-11.857h-278.59c-6.548 0-11.857 5.309-11.857 11.857s5.309 11.857 11.857 11.857h278.59c6.549 0 11.857-5.309 11.857-11.857z" fill="#bea4ff"/>
   </g>
   <g transform="matrix(.26458 0 0 .26458 -1141.2 22.548)" fill="#f00">
    <path d="m112.56 255.26c0 12.005-9.732 21.738-21.738 21.738s-21.738-9.732-21.738-21.738c0-12.005 9.732-21.738 21.738-21.738s21.738 9.733 21.738 21.738zm275.34-26.232h-13.424v24.654h13.424z" fill="#0fc"/>
   </g>
   <g transform="matrix(.26458 0 0 .26458 -1141.2 22.548)" fill="#40a">
    <path d="m112.56 337.02c0 12.005-9.732 21.738-21.738 21.738s-21.738-9.732-21.738-21.738 9.732-21.738 21.738-21.738 21.738 9.733 21.738 21.738zm345.12-56.857c0-4.365-3.539-7.904-7.904-7.904h-278.59c-4.366 0-7.905 3.539-7.905 7.904s3.539 7.904 7.905 7.904h278.59c4.366 0 7.905-3.539 7.905-7.904zm0 38.732c0-4.365-3.539-7.904-7.904-7.904h-278.59c-4.366 0-7.905 3.539-7.905 7.904s3.539 7.904 7.905 7.904h278.59c4.366 1e-3 7.905-3.538 7.905-7.904zm0 38.733c0-4.365-3.539-7.904-7.904-7.904h-278.59c-4.366 0-7.905 3.539-7.905 7.904s3.539 7.904 7.905 7.904h278.59c4.366 0 7.905-3.539 7.905-7.904zm0 38.732c0-4.365-3.539-7.904-7.904-7.904h-278.59c-4.366 0-7.905 3.539-7.905 7.904s3.539 7.904 7.905 7.904h278.59c4.366 1e-3 7.905-3.538 7.905-7.904zm0 38.733c0-4.365-3.539-7.904-7.904-7.904h-278.59c-4.366 0-7.905 3.539-7.905 7.904s3.539 7.904 7.905 7.904h278.59c4.366 0 7.905-3.539 7.905-7.904zm-42.263-206.06h-6v12.399h6zm-67.003 0h-6v12.399h6zm-33.502 0h-6v12.399h6zm-33.502 0h-6v12.399h6zm-33.501 0h-6v12.399h6zm-33.502 0h-6v12.399h6zm-33.502 0h-6v12.399h6zm266.26 0h-6v12.399h6z" fill="#40a"/>
   </g>
  </g>
 </g>
</svg>
