<?xml version="1.0" encoding="UTF-8"?>
<svg width="158.93mm" height="158.93mm" version="1.1" viewBox="0 0 158.93 158.93" xmlns="http://www.w3.org/2000/svg">
 <g transform="translate(752.13 138.82)">
  <g transform="matrix(.84838 0 0 .84838 -1213.4 -304.51)" stroke-width="4.6407">
   <path d="m593.05 299.01 49.229-49.215 9.843 9.843-49.229 49.22z" fill="#99aab5"/>
   <path d="m593.05 344.95c-3.6244 3.6244-9.4996 3.6244-13.124 0l-22.972-22.967c-3.6244-3.6244-3.6244-9.5042 0-13.124l22.972-22.976c3.6244-3.6244 9.4996-3.6244 13.124 0l22.972 22.972c3.6244 3.6198 3.6244 9.4996 0 13.124zm75.468-75.472c-3.6198 3.6244-9.4996 3.6244-13.119 0l-22.972-22.972c-3.6244-3.6244-3.6244-9.4996 0-13.124l22.976-22.972c3.6244-3.6244 9.4996-3.6244 13.124 0l22.967 22.972c3.6244 3.6244 3.6244 9.4996 5e-3 13.124z" fill="#40a"/>
   <path d="m611.1 254.71-6.562-19.691c-2.079-6.2279-6.5666-6.5666-9.8477-3.2856l-13.124 13.129c-3.2856 3.281-2.9469 7.7686 3.281 9.8476l19.691 6.562z" fill="#99aab5"/>
   <path d="m635.72 308.85c-3.6291 3.6244-9.5042 3.6244-13.129 5e-3l-32.815-32.815c-3.6244-3.6244-3.6244-9.5042 0-13.129l19.686-19.686c3.6244-3.6244 9.5042-3.6244 13.129 0l32.815 32.815c3.6198 3.6244 3.6198 9.4996-5e-3 13.129z" fill="#ccd6dd"/>
   <path d="m651.07 304.7c-9.0587 9.0634-22.285 10.53-29.534 3.2856-7.2488-7.2488 4.0653-10.627 13.129-19.691s12.442-20.373 19.691-13.129c7.2442 7.2488 5.7777 20.47-3.2856 29.534z" fill="#ccd6dd"/>
   <path d="m683.29 300.65c-9.8384-9.8476-23.751-9.0541-32.815 0-9.0587 9.068-9.843 22.972 0 32.815zm-13.124 13.129 9.843 16.405-16.405-9.843z" fill="#99aab5"/>
   <path d="m682.61 332.78c-1.8145 1.8145-4.7475 1.8145-6.562 0s-1.8145-4.7475 0-6.562 4.7475-1.8145 6.562 0 1.8145 4.7521 0 6.562z" fill="#99aab5"/>
   <path d="m573.35 292.46 6.5713-6.5713 36.1 36.091-6.562 6.5666zm59.077-59.077 6.562-6.562 36.096 36.096-6.562 6.562zm-75.482 75.486 6.562-6.5666 36.105 36.086-6.562 6.562zm91.877-91.887 6.5574-6.5666 36.11 36.082-6.5574 6.562z" fill="#bea4ff"/>
   <path d="m592.09 242.27c-1.8099 1.8099-4.7475 1.8099-6.562 0-1.8145-1.8145-1.8099-4.7521 0-6.5666 1.8145-1.8099 4.7475-1.8099 6.562 0 1.8145 1.8145 1.8145 4.7521 0 6.5666z" fill="#99aab5"/>
   <path d="m663.44 348.21 9e-3 -0.23668c0.1253-2.5617 2.3064-4.534 4.8681-4.4041 0.0743 5e-3 10.005 0.29237 17.635-7.3324 7.5969-7.6015 7.3231-17.505 7.3324-17.639-0.15315-2.5524 1.8424-4.7382 4.3994-4.8681 2.5617-0.1253 4.7428 1.8424 4.8681 4.4041 0.0557 0.56617 0.57081 14.052-10.038 24.661-10.618 10.613-24.09 10.07-24.661 10.043-2.4828-0.1253-4.4133-2.1719-4.4133-4.6268z" fill="#0fc"/>
   <path d="m666.02 364.73c0-0.50584 0.0835-1.0256 0.26452-1.5314 0.84462-2.4178 3.4898-3.694 5.9077-2.8448 0.49656 0.15779 13.351 4.1442 27.677-10.186 14.512-14.507 11.203-28.429 11.054-29.014-0.63578-2.455 0.8539-4.9981 3.3228-5.6431 2.4596-0.64971 4.9795 0.7982 5.6478 3.2532 0.21347 0.78892 4.9981 19.514-13.458 37.966-18.628 18.637-36.55 12.651-37.302 12.382-1.9166-0.66827-3.1139-2.4642-3.1139-4.3809z" fill="#0fc"/>
  </g>
 </g>
</svg>
