<?xml version="1.0" encoding="UTF-8"?>
<svg width="158.93mm" height="158.93mm" version="1.1" viewBox="0 0 158.93 158.93" xmlns="http://www.w3.org/2000/svg">
 <g transform="translate(752.13 138.82)">
  <path d="m-605.86-74.427c-0.4799-1.5338-2.1121-2.3887-3.647-1.9079l-2.6101 0.81703c-3.2427-1.5674-18.52-9.1324-30.831-18.299-13.764-10.249-26.714-24.659-26.843-24.804-0.077-0.0855-0.2516-0.16378-0.2516-0.23812v-1.2218c0-1.6073-1.3033-2.9104-2.9104-2.9104-1.6074 0-2.9104 1.3031-2.9104 2.9104v1.3205c0 0.0458-0.084 0.0902-0.1278 0.1397-0.1289 0.14419-13.048 14.543-26.828 24.803-12.106 9.0141-27.108 16.493-30.667 18.221l-2.3487-0.73819c-1.5346-0.48181-3.1665 0.37121-3.6483 1.9045-0.4816 1.5335 0.3714 3.1671 1.9047 3.6489l2.8181 0.88503c2.154 3.8806 9.8988 18.245 14.548 32.25 4.609 13.885 6.9932 29.903 7.6104 34.445-0.021 0.0635-0.04 0.12779-0.056 0.19315l-1.9248 2.6771c-0.9382 1.3052-0.6411 3.1239 0.6641 4.0621 0.5141 0.36962 1.1081 0.54769 1.6965 0.54769 0.9049 0 1.7968-0.42096 2.3654-1.2115l2.0034-2.7866c4.6789-0.91255 20.424-3.765 34.92-3.8807 14.341-0.11483 29.988 2.4379 34.843 3.2994l2.4101 3.3483c0.5686 0.79005 1.4602 1.2105 2.3646 1.2105 0.5892 0 1.1835-0.17833 1.6978-0.54848 1.3047-0.93901 1.601-2.758 0.662-4.0624l-0.8882-1.234c0.029-0.11615 0.053-0.23416 0.068-0.35587 0.023-0.19235 2.3688-19.416 7.775-35.703 4.8393-14.58 13.051-29.577 14.789-32.682l1.4448-0.45218c1.5346-0.48022 2.389-2.1132 1.9088-3.647zm-40.574-14.721c9.2266 6.8702 19.81 12.748 26.321 16.132l-10.227 3.2017c-0.1278-0.0233-0.2548-0.0392-0.3831-0.0452-0.03-0.0156-0.057-0.0331-0.088-0.0476-0.118-0.0561-11.912-5.693-21.153-12.643-9.2411-6.9496-17.94-16.717-18.026-16.815-0.013-0.0148-0.052-0.0275-0.052-0.0421v-10.95c5.0274 5.2049 14.01 14.062 23.608 21.208zm-54.78 44.176c-2.0624-6.1055-4.8918-12.187-7.1384-16.629l8.4619 2.658c1.0914 1.9735 3.8949 7.2512 5.6356 12.405 1.8373 5.4388 2.8215 11.74 3.0919 13.636l-5.3038 7.3766c-0.8681-5.0033-2.4048-12.512-4.7472-19.447zm12.474-3.4293c-0.9642-2.8546-2.2027-5.6991-3.3446-8.0899l14.588 4.582-8.9101 12.392c-0.5485-2.6858-1.3158-5.8722-2.3331-8.8842zm18.698-25.176c2.1167 2.0016 4.6641 4.3905 7.4007 6.4482 2.5445 1.9137 5.3289 3.6438 7.7094 5.0083l-15.11 4.7278zm-5.8208 16.087-14.521-4.5643c2.4053-1.3742 5.2393-3.1303 7.8248-5.0744 2.4373-1.833 4.844-3.9288 6.6961-5.7793zm3.0813 8.9953 8.8993 12.363c-2.5546-0.28602-5.5055-0.51435-8.3831-0.50509-3.3388 0.0151-6.7696 0.35348-9.5655 0.72734zm16.137 0.0939c-1.0404 3.08-1.8198 6.3439-2.3707 9.067l-9.0493-12.572 14.785-4.6278c-1.1478 2.3998-2.3953 5.2607-3.3652 8.1325zm9.5123-16.156c-1.6854-0.83477-7.3793-3.7489-12-7.2239-5.4457-4.0955-10.598-9.8727-10.648-9.9301-0.079-0.0894-0.2609-0.17066-0.2609-0.24792v-8.954c3.4396 3.6243 8.9035 8.7548 14.569 13.016 5.8637 4.4096 12.535 8.2317 17.013 10.624zm-28.73-16.671c-1.323 1.4735-5.6484 6.032-10.189 9.447-4.7228 3.5518-10.589 6.5307-12.111 7.2813l-8.6588-2.7204c4.4786-2.3884 11.192-6.2349 17.098-10.677 5.3104-3.9936 10.421-8.7508 13.861-12.316zm-10.777 52.007c0.7172-0.14526 7.9023-1.5658 14.401-1.5952 5.0517-0.0193 10.541 0.79639 13.064 1.224l5.3139 7.3821c-4.912-0.71385-11.911-1.5094-18.703-1.5094-0.1286 0-0.2577 2.6e-4 -0.386 7.9e-4 -6.7988 0.0307-13.842 0.87974-18.828 1.6425zm37.691 3.8722-5.2999-7.3631c0.226-1.6235 1.2142-8.1881 3.1187-13.826 1.7462-5.17 4.5762-10.489 5.6546-12.438l8.454-2.6461c-2.2484 4.4432-5.084 10.535-7.1498 16.651-2.3699 7.0157-3.9156 14.621-4.7776 19.623zm-50.398-63.799c9.5324-7.098 18.457-15.882 23.484-21.101v11.6c-2.1167 2.3828-9.5576 10.233-17.358 16.099-9.2411 6.9496-21.031 12.586-21.149 12.643-0.03 0.0145-0.056 0.032-0.085 0.0474-0.2045-6e-3 -0.4088 0.0106-0.613 0.0492l-10.447-3.28c6.5217-3.3954 17.009-9.2374 26.167-16.057zm-27.462 21.75 10.557 3.316c1.8632 3.3737 6.5889 12.286 9.5232 20.973 3.7002 10.954 5.353 23.922 5.3694 24.052 0.011 0.0918 0.027 0.18204 0.047 0.27041l-6.401 8.9027c-1.1875-7.2803-3.4253-18.903-6.9742-29.594-3.5539-10.707-8.7201-21.376-12.122-27.919zm53.83 57.978c-11.12 0.0889-22.69 1.6798-29.982 2.8988l6.3367-8.813c2.9684-0.57255 13.776-2.5191 23.701-2.5635 0.118-5.3e-4 0.2357-8e-4 0.3537-8e-4 9.9952 0 20.824 1.8799 23.525 2.3797l6.1368 8.5254c-7.3075-1.1036-18.924-2.5159-30.072-2.4265zm43.454-30.059c-3.8034 11.458-6.1013 23.987-7.2136 31.092l-7.3753-10.246c0.039-0.13785 0.07-0.27887 0.088-0.42519 0.016-0.12938 1.6629-13.079 5.3695-24.051 2.9377-8.6976 7.6711-17.62 9.5298-20.985l11.95-3.7407c-3.3951 6.4979-8.7151 17.407-12.349 28.356z" fill="#40a" stroke-width=".26458"/>
 </g>
</svg>
