<?xml version="1.0" encoding="UTF-8"?>
<svg width="158.93mm" height="158.93mm" version="1.1" viewBox="0 0 158.93 158.93" xmlns="http://www.w3.org/2000/svg">
 <g transform="translate(752.13 138.82)">
  <g transform="matrix(1.2537 0 0 1.2537 -514.11 -200.32)" stroke-width=".26458">
   <path d="m-81.654 67.613c-11.972-11.971-27.888-18.564-44.819-18.564-16.93 0-32.847 6.5932-44.819 18.564-11.971 11.972-18.564 27.888-18.564 44.819 0 16.93 6.5929 32.847 18.564 44.819 11.972 11.972 27.888 18.564 44.819 18.564 16.93 0 32.847-6.5929 44.819-18.564s18.564-27.888 18.564-44.819c0-16.93-6.5929-32.847-18.564-44.819z" fill="#bea4ff"/>
   <path d="m-81.654 67.613c-11.972-11.971-27.888-18.564-44.819-18.564-16.93 0-32.847 6.5932-44.819 18.564-11.971 11.972-18.564 27.888-18.564 44.819 0 16.93 6.5929 32.847 18.564 44.819 11.972 11.972 27.888 18.564 44.819 18.564 16.93 0 32.847-6.5929 44.819-18.564s18.564-27.888 18.564-44.819c0-16.93-6.5929-32.847-18.564-44.819zm-10.416 41.247c-0.30189-10.262-1.9016-20.075-4.6477-28.735 4.4773-1.2676 8.6394-2.8411 12.528-4.7313 7.9483 9.0628 13.035 20.692 13.84 33.466zm-37.975 59.303c-5.5533-1.574-10.813-6.7879-15.094-15.077-0.53922-1.0443-1.0544-2.1233-1.5462-3.2329 3.0673-0.58262 6.2653-1.0411 9.5983-1.3647 2.3572-0.22887 4.7048-0.37968 7.0419-0.46011zm7.1438-20.148c5.6425 0.17356 11.201 0.78766 16.639 1.8404-0.49159 1.1089-1.0062 2.187-1.5449 3.2303-4.2807 8.2891-9.5406 13.503-15.094 15.077zm-7.1438-7.134c-2.5665 0.0831-5.1446 0.24527-7.7324 0.49662-3.9981 0.38815-7.8285 0.95833-11.489 1.701-2.6252-8.0793-4.1611-17.336-4.4635-27.075h23.685zm-23.684-32.021c0.30242-9.7409 1.8389-18.998 4.4646-27.079 6.2738 1.2885 12.697 2.0275 19.22 2.2159v24.863zm23.684-32.008c-5.6428-0.17383-11.202-0.78952-16.64-1.8412 0.49186-1.1097 1.007-2.1886 1.546-3.2327 4.2807-8.2894 9.5404-13.504 15.094-15.077zm7.1438-20.151c5.5533 1.5737 10.813 6.7879 15.094 15.077 0.54187 1.0493 1.0594 2.1341 1.5534 3.2496-2.7562 0.51805-5.6362 0.93424-8.649 1.2515-2.6781 0.28178-5.3451 0.46355-7.9981 0.55457v-20.133zm21.441 11.8c-1.751-3.3909-3.6793-6.3661-5.7499-8.9083 6.5241 2.3857 12.486 5.9478 17.629 10.427-3.0054 1.3163-6.2013 2.4368-9.6009 3.3748-0.71067-1.6933-1.4695-3.3282-2.2781-4.894zm-50.026 0c-0.8046 1.5579-1.56 3.1843-2.2675 4.8686-3.4441-0.94562-6.6339-2.0571-9.6112-3.3494 5.143-4.4794 11.105-8.0415 17.629-10.427-2.0706 2.5419-3.9989 5.5171-5.7499 8.908zm-4.7339 11.599c-2.7511 8.6664-4.3537 18.489-4.6559 28.76h-21.72c0.8046-12.77 5.888-24.397 13.833-33.458 3.8505 1.8624 8.0018 3.4192 12.543 4.6979zm-4.6559 35.904c0.30215 10.27 1.9039 20.089 4.6538 28.754-4.4921 1.2732-8.6725 2.8496-12.53 4.7157-7.9505-9.0633-13.038-20.694-13.843-33.47zm7.1197 35.485c0.70829 1.6867 1.4647 3.315 2.2701 4.8749 1.751 3.3909 3.6793 6.3661 5.7497 8.9083-6.5212-2.385-12.481-5.9449-17.622-10.422 2.9924-1.3018 6.1987-2.4212 9.6025-3.3615zm54.561 0.0135c3.3846 0.93848 6.5924 2.063 9.5938 3.3607-5.1385 4.4709-11.093 8.0264-17.608 10.409 2.0704-2.5421 3.9986-5.5174 5.7499-8.9083 0.80327-1.5558 1.5576-3.1798 2.2643-4.8614zm-4.4857-8.4204c-6.273-1.2896-12.697-2.0254-19.22-2.2138v-24.864h23.684c-0.30268 9.7406-1.8389 18.998-4.4643 27.078zm-19.22-34.222v-24.877c2.9014-0.09366 5.8184-0.29184 8.7461-0.59981 3.6655-0.38576 7.1501-0.91652 10.479-1.5856 2.6226 8.0764 4.1571 17.328 4.4596 27.062zm38.68 40.645 0.018-0.0373c-3.8624-1.8542-8.06-3.4269-12.525-4.6964 2.7525-8.6683 4.3558-18.493 4.658-28.768h21.719c-0.80565 12.791-5.9042 24.433-13.87 33.501z" fill="#60f"/>
  </g>
 </g>
</svg>
