<?xml version="1.0" encoding="UTF-8"?>
<svg width="158.93mm" height="158.93mm" version="1.1" viewBox="0 0 158.93 158.93" xmlns="http://www.w3.org/2000/svg">
 <g transform="translate(752.13 138.82)">
  <g transform="translate(-920.29 -335.42)">
   <g transform="matrix(.26458 0 0 .26458 179.97 208.43)">
    <path d="m393 507.59h-355.39c-11.929 0-21.6-9.671-21.6-21.6v-442.16c0-11.929 9.671-21.6 21.6-21.6h355.39c11.929 0 21.6 9.671 21.6 21.6v442.16c0 11.929-9.671 21.6-21.6 21.6z" fill="#dce2e2"/>
    <path d="m334.06 148.42h-255.9c-7.456 0-13.5-6.044-13.5-13.5s6.044-13.5 13.5-13.5h255.9c7.456 0 13.5 6.044 13.5 13.5s-6.043 13.5-13.5 13.5zm13.5 47.77c0-7.456-6.044-13.5-13.5-13.5h-255.9c-7.456 0-13.5 6.044-13.5 13.5s6.044 13.5 13.5 13.5h255.9c7.457 0 13.5-6.044 13.5-13.5zm-172.81 61.271c0-7.456-6.044-13.5-13.5-13.5h-83.093c-7.456 0-13.5 6.044-13.5 13.5s6.044 13.5 13.5 13.5h83.093c7.456 0 13.5-6.044 13.5-13.5zm172.81 61.27c0-7.456-6.044-13.5-13.5-13.5h-255.9c-7.456 0-13.5 6.044-13.5 13.5s6.044 13.5 13.5 13.5h255.9c7.457 0 13.5-6.044 13.5-13.5zm-172.81 118.7c0-7.456-6.044-13.5-13.5-13.5h-83.093c-7.456 0-13.5 6.044-13.5 13.5s6.044 13.5 13.5 13.5h83.093c7.456 0 13.5-6.044 13.5-13.5z" fill="#96a9b2"/>
    <path d="m471.44 140.52c-19.599-19.599-41.958-29.015-49.94-21.032l-53.979 53.979 70.973 70.973 53.979-53.979c7.983-7.983-1.434-30.342-21.033-49.941z" fill="#ff6e83"/>
    <path d="m437.23 174.74c-22.361-22.361-47.871-33.104-56.978-23.996l-55.276 55.276 80.975 80.975 55.276-55.276c9.107-9.108-1.637-34.619-23.997-56.979z" fill="#bfbcaf"/>
    <path d="m224.07 424.61-48.686 21.176c-3.543 1.541-7.665-0.082-9.206-3.625-0.802-1.844-0.737-3.868 0-5.581l21.176-48.686c6.146-14.131 22.585-20.604 36.716-14.458s20.604 22.585 14.458 36.716c-2.924 6.722-8.233 11.736-14.458 14.458z" fill="#2b2622"/>
   </g>
   <g transform="matrix(.26458 0 0 .26458 179.97 208.43)" fill="#40a">
    <path d="m429.29 263.48c0.051-0.074 0.104-0.147 0.152-0.222 7.023-10.063-3.722-34.289-25.084-55.651s-45.587-32.107-55.65-25.085c-0.076 0.049-0.149 0.101-0.223 0.153-0.091 0.067-0.184 0.13-0.272 0.2-0.248 0.191-0.49 0.393-0.718 0.62l-128.46 128.46s-36.341 89.931-22.648 103.62c13.692 13.692 103.62-22.648 103.62-22.648l128.46-128.46c0.227-0.227 0.43-0.469 0.62-0.718 0.069-0.087 0.133-0.181 0.2-0.272z" fill="#40a"/>
   </g>
   <g transform="matrix(.26458 0 0 .26458 179.97 208.43)">
    <path d="m219.03 311.96-2.853 17.779c-0.42 2.615 1.845 4.873 4.458 4.446l12.741-2.081c2.516-0.411 4.739 1.675 4.489 4.212l-1.419 14.382c-0.249 2.525 1.951 4.606 4.458 4.217l12.877-1.997c2.633-0.408 4.885 1.896 4.416 4.519l-2.203 12.32c-0.454 2.537 1.646 4.804 4.211 4.545l14.493-1.462c2.445-0.247 4.501 1.812 4.251 4.257l-1.494 14.621c-0.257 2.516 1.922 4.602 4.424 4.235l18.443-2.702-103.94 43.491c8.292-8.292-13.178-29.761-21.47-21.47z" fill="#e5aa6e"/>
   </g>
   <g transform="matrix(.26458 0 0 .26458 179.97 208.43)" fill="#330080">
    <path d="m245.7 316.66c-1.239 0-2.478-0.473-3.423-1.418-1.89-1.891-1.89-4.955 0-6.846l107.18-107.19c1.891-1.888 4.955-1.89 6.846 0 1.89 1.891 1.89 4.955 0 6.846l-107.19 107.19c-0.945 0.946-2.184 1.418-3.422 1.418zm30.804 25.964 107.19-107.19c1.89-1.891 1.89-4.955 0-6.846-1.891-1.89-4.955-1.89-6.846 0l-107.19 107.19c-1.89 1.891-1.89 4.955 0 6.846 0.945 0.945 2.185 1.418 3.423 1.418s2.477-0.473 3.423-1.418zm27.381 27.381 107.19-107.19c1.89-1.891 1.89-4.955 0-6.846-1.891-1.89-4.955-1.89-6.846 0l-107.19 107.19c-1.89 1.891-1.89 4.955 0 6.846 0.945 0.945 2.185 1.418 3.423 1.418s2.477-0.473 3.423-1.418z" fill="#330080"/>
   </g>
   <g transform="matrix(.26458 0 0 .26458 179.97 208.43)">
    <path d="m291.6 55.317h-156.23c-8.05 0-14.576-6.526-14.576-14.576v-22.449c0-8.05 6.526-14.576 14.576-14.576h156.23c8.05 0 14.576 6.526 14.576 14.576v22.449c0 8.05-6.526 14.576-14.576 14.576z" fill="#b9c5c6"/>
   </g>
  </g>
 </g>
</svg>
