<svg id="remoteControl" version="1.1" viewBox="0 0 151 55" xmlns="http://www.w3.org/2000/svg">
  <g fill="#0f0">
    <path d="m43.79 44.97c-2.048-0.5781-3.801-1.188-3.896-1.355-0.3258-0.5737 2.86-16.17 3.361-16.45 0.4171-0.2368 5.312 4.476 6.296 6.061 0.3383 0.545-1.296 12.38-1.744 12.63-0.1616 0.09174-1.969-0.3063-4.017-0.8844zm-18.77 8.881c-0.2906-0.247-1.131-1.86-1.867-3.585l-1.339-3.136 7.52-4.435c4.136-2.439 7.622-4.257 7.746-4.039 0.3905 0.6875-0.8644 8.809-1.476 9.553-1.139 1.386-10.02 6.12-10.58 5.641zm-15.49-9.019c-3.061-1.22-5.656-2.376-5.766-2.571-0.2222-0.3911 3.079-6.707 3.686-7.052 0.4132-0.2346 14.57 5.664 15.58 6.489 0.4998 0.4108-0.1635 0.9412-3.659 2.927l-4.27 2.425zm39.38-17.56c-1.225-0.6701-10.13-12.25-9.64-12.53 0.07787-0.04429 2.244-0.128 4.814-0.1864l4.672-0.1061 3.6 4.057c2.558 2.882 3.539 4.277 3.39 4.817-0.2605 0.9452-6.129 4.334-6.836 3.948zm-40.8 4.108-3.962-1.758-1.455-5.464c-0.8002-3.005-1.416-5.604-1.369-5.775 0.04721-0.1716 1.833-0.5626 3.968-0.8692 4.259-0.6114 4.397-0.5232 5.264 3.347 0.2946 1.316 1.003 4.487 1.575 7.047s0.7918 4.784 0.4895 4.942c-0.3023 0.1582-2.332-0.5034-4.511-1.47zm25.07-19.93c-4.072-0.07373-7.542-0.3664-7.711-0.6502-0.1689-0.2838 0.7466-2.128 2.034-4.098l2.342-3.583 5.015-0.08468c8.075-0.1365 7.537-0.4471 7.103 4.098-0.2044 2.141-0.5984 4.019-0.8753 4.173-0.277 0.1538-3.835 0.2192-7.908 0.1455zm-18.93 8.06c-0.6189-1.17-3.005-8.018-2.903-8.333 0.3678-1.14 6.015-9.784 6.448-9.87 0.5116-0.101 5.689 3.911 6.193 4.8 0.1922 0.3386-8.431 13.71-9.079 14.08-0.128 0.07276-0.4246-0.2309-0.6592-0.6745z"/>
    <path id="play" d="m23.48 20.4c-0.7423-0.0171-1.353 0.5798-1.354 1.322v11.75c0.0011 1.018 1.103 1.653 1.984 1.145l10.18-5.875c0.8836-0.5089 0.8836-1.784 0-2.293l-10.18-5.875c-0.1921-0.1112-0.409-0.1723-0.6309-0.1777z" color="#000000" color-rendering="auto" dominant-baseline="auto" image-rendering="auto" shape-rendering="auto" solid-color="#000000"/>
    <path id="pause" d="m25.08 20.4a1.323 1.323 0 0 0-1.322 1.322v11.75a1.323 1.323 0 0 0 1.322 1.322h1.107a1.323 1.323 0 0 0 1.322-1.322v-11.75a1.323 1.323 0 0 0-1.322-1.322zm5.822 0a1.323 1.323 0 0 0-1.324 1.322v11.75a1.323 1.323 0 0 0 1.324 1.322h1.105a1.323 1.323 0 0 0 1.322-1.322v-11.75a1.323 1.323 0 0 0-1.322-1.322z" color="#000000" color-rendering="auto" dominant-baseline="auto" image-rendering="auto" shape-rendering="auto" solid-color="#000000"/>
  </g>
  <g id="rwdButton">
    <path id="skipRwd" d="m79.91 12.38-8.592 10.77 3.059 13.43 12.41 5.983 12.41-5.972 3.072-13.43-8.584-10.77zm-0.9978 7.89h1.108a1.323 1.323 0 0 1 1.322 1.322v11.75a1.323 1.323 0 0 1-1.322 1.322h-1.108a1.323 1.323 0 0 1-1.322-1.322v-11.75a1.323 1.323 0 0 1 1.322-1.322zm8.308 0c0.747-0.02382 1.365 0.5752 1.365 1.322v11.75c-0.0021 1.273-1.625 1.809-2.385 0.7872l-4.358-5.877c-0.3461-0.4678-0.3461-1.107 0-1.574l4.358-5.877c0.2403-0.3247 0.616-0.5221 1.02-0.5353zm7.409 0c0.747-0.02382 1.365 0.5752 1.365 1.322v11.75c-0.0021 1.273-1.625 1.809-2.385 0.7872l-4.358-5.877c-0.3461-0.4678-0.3461-1.107 0-1.574l4.358-5.877c0.2403-0.3247 0.616-0.5221 1.02-0.5353z" fill="#0f0" stroke-width=".2646"/>
    <rect x="72.4" y="13.44" width="28.33" height="27.86" fill="none"/>
  </g>
  <g id="ffwButton">
    <path id="skipFfw" d="m127.5 12.38-8.594 10.77 3.059 13.43 12.41 5.983 12.41-5.972 3.072-13.43-8.584-10.77zm-0.9555 7.89c0.4038 0.0134 0.7792 0.2107 1.02 0.5353l4.358 5.877c0.3461 0.4678 0.3461 1.107 0 1.574l-4.358 5.877c-0.7597 1.022-2.382 0.4861-2.385-0.7872v-11.75c6e-5 -0.7472 0.6181-1.346 1.365-1.322zm7.409 0c0.4038 0.0134 0.7792 0.2107 1.02 0.5353l4.358 5.877c0.3461 0.4678 0.3461 1.107 0 1.574l-4.358 5.877c-0.7597 1.022-2.383 0.4861-2.385-0.7872v-11.75c7e-5 -0.7472 0.6186-1.346 1.365-1.322zm7.202 0h1.108a1.323 1.323 0 0 1 1.322 1.322v11.75a1.323 1.323 0 0 1-1.322 1.322h-1.108a1.323 1.323 0 0 1-1.322-1.322v-11.75a1.323 1.323 0 0 1 1.322-1.322z" fill="#0f0" stroke-width=".2646"/>
    <rect x="120" y="13.45" width="28.33" height="27.86" fill="none"/>
  </g>
</svg>
