<?xml version="1.0" encoding="UTF-8"?>
<svg width="1052" height="1052" version="1.1" xmlns="http://www.w3.org/2000/svg" xmlns:xlink="http://www.w3.org/1999/xlink">
 <defs>
  <linearGradient id="linearGradient4242" x1="439.9" x2="469.7" y1="455.7" y2="557.7" gradientTransform="translate(-297.2 320.9)" gradientUnits="userSpaceOnUse">
   <stop stop-color="#0f3060" offset="0"/>
   <stop stop-color="#0575ce" offset=".2712"/>
   <stop stop-color="#0575ce" offset=".7327"/>
   <stop stop-color="#0f3060" offset="1"/>
  </linearGradient>
  <linearGradient id="linearGradient4244" x1="382.8" x2="347.4" y1="585.2" y2="645" gradientTransform="translate(-297.2 320.9)" gradientUnits="userSpaceOnUse">
   <stop stop-color="#092d61" offset="0"/>
   <stop stop-color="#0575ce" offset="1"/>
  </linearGradient>
  <linearGradient id="linearGradient4246" x1="415.8" x2="436.4" y1="620.1" y2="486.4" gradientTransform="translate(-297.2 320.9)" gradientUnits="userSpaceOnUse">
   <stop stop-color="#0f3060" offset="0"/>
   <stop stop-color="#0575ce" offset=".457"/>
   <stop stop-color="#0575ce" offset=".7383"/>
   <stop stop-color="#0f3060" offset="1"/>
  </linearGradient>
  <linearGradient id="linearGradient4248" x1="389.6" x2="309" y1="763.3" y2="420" gradientTransform="matrix(.2457 0 0 .2457 34.35 723)" gradientUnits="userSpaceOnUse">
   <stop stop-color="#ff8000" offset="0"/>
   <stop stop-color="#fff4e1" offset=".6627"/>
   <stop stop-color="#fff4e1" offset=".75"/>
   <stop stop-color="#ff8400" offset="1"/>
  </linearGradient>
  <linearGradient id="linearGradient4250" x1="528.8" x2="458.5" y1="511.7" y2="527.1" gradientTransform="translate(-297.2 320.9)" gradientUnits="userSpaceOnUse" xlink:href="#linearGradient3591"/>
  <linearGradient id="linearGradient3591">
   <stop stop-color="#fff" offset="0"/>
   <stop stop-color="#fff" stop-opacity="0" offset="1"/>
  </linearGradient>
  <linearGradient id="linearGradient4252" x1="197.2" x2="146.5" y1="703.8" y2="785.9" gradientTransform="matrix(.2457 0 0 .2457 34.35 723)" gradientUnits="userSpaceOnUse">
   <stop stop-color="#ffc768" offset="0"/>
   <stop stop-color="#ff8400" offset=".3784"/>
   <stop stop-color="#ff8400" offset=".7742"/>
   <stop stop-color="#ffc768" offset="1"/>
  </linearGradient>
  <linearGradient id="linearGradient4254" x1="413.6" x2="423.5" y1="484.6" y2="541.8" gradientTransform="matrix(1.033 0 0 1.014 -309.9 314.2)" gradientUnits="userSpaceOnUse" xlink:href="#linearGradient3591"/>
  <linearGradient id="linearGradient4256" x1="409.7" x2="467.9" y1="559.4" y2="676" gradientTransform="matrix(.2457 0 0 .2457 34.35 723)" gradientUnits="userSpaceOnUse" xlink:href="#linearGradient3509"/>
  <linearGradient id="linearGradient3509">
   <stop stop-color="#ff8000" offset="0"/>
   <stop stop-color="#ffc768" offset=".3414"/>
   <stop stop-color="#ffc768" offset=".712"/>
   <stop stop-color="#ff8400" offset="1"/>
  </linearGradient>
  <linearGradient id="linearGradient4258" x1="522.6" x2="585.9" y1="168.7" y2="161.1" gradientTransform="matrix(.2457 0 0 .2457 34.35 723)" gradientUnits="userSpaceOnUse">
   <stop stop-color="#ff8000" offset="0"/>
   <stop stop-color="#fff4e1" offset=".5"/>
   <stop stop-color="#fff4e1" offset=".75"/>
   <stop stop-color="#ff8400" offset="1"/>
  </linearGradient>
  <linearGradient id="linearGradient4260" x1="481.5" x2="405.4" y1="417.5" y2="316.8" gradientTransform="matrix(.2457 0 0 .2457 34.35 723)" gradientUnits="userSpaceOnUse" xlink:href="#linearGradient3509"/>
  <linearGradient id="linearGradient4262" x1="473.1" x2="457.7" y1="499.6" y2="477.6" gradientTransform="translate(-297.2 320.9)" gradientUnits="userSpaceOnUse" xlink:href="#linearGradient3591"/>
  <linearGradient id="linearGradient4264" x1="394.3" x2="446.3" y1="501.8" y2="485.4" gradientTransform="translate(-297.2 320.9)" gradientUnits="userSpaceOnUse" xlink:href="#linearGradient3591"/>
  <linearGradient id="linearGradient4266" x1="395.8" x2="369.6" y1="590.7" y2="572.2" gradientTransform="translate(-297.2 320.9)" gradientUnits="userSpaceOnUse" xlink:href="#linearGradient3591"/>
  <linearGradient id="linearGradient4268" x1="297.1" x2="310.5" y1="667.2" y2="713.9" gradientTransform="matrix(.2457 0 0 .2457 34.35 723)" gradientUnits="userSpaceOnUse" xlink:href="#linearGradient2937"/>
  <linearGradient id="linearGradient2937">
   <stop stop-color="#212a3a" offset="0"/>
   <stop stop-color="#404e67" stop-opacity="0" offset="1"/>
  </linearGradient>
  <linearGradient id="linearGradient4270" x1="246.3" x2="366.9" y1="690" y2="632.2" gradientTransform="matrix(.09308 0 0 .1861 131.9 665.9)" gradientUnits="userSpaceOnUse" xlink:href="#linearGradient2937"/>
  <linearGradient id="linearGradient4272" x1="301.1" x2="367.9" y1="645.9" y2="654.7" gradientTransform="matrix(-.09281 -.007039 .01407 -.1855 186.2 929.7)" gradientUnits="userSpaceOnUse" xlink:href="#linearGradient2937"/>
  <linearGradient id="linearGradient4274" x1="279.8" x2="386.8" y1="688.3" y2="667.6" gradientTransform="matrix(.2457 0 0 .2457 98.31 642.6)" gradientUnits="userSpaceOnUse" xlink:href="#linearGradient2937"/>
  <linearGradient id="linearGradient5486" x1="338.1" x2="266.2" y1="668.3" y2="702.9" gradientTransform="matrix(.2457 0 0 .2457 25.55 660.8)" gradientUnits="userSpaceOnUse" xlink:href="#linearGradient2937"/>
 </defs>
 <rect width="1052" height="1052" rx="76.32" ry="74.82" fill="#c6e9af" fill-opacity=".75" stop-color="#000000" stroke-linecap="round" stroke-linejoin="round" stroke-width="22.6" style="paint-order:fill markers stroke"/>
 <g transform="translate(157.6 7.931)">
  <g transform="matrix(4.207 0 0 4.207 -152.9 -3060)">
   <path d="m52.51 964c-0.5976-1.314-1.087-2.498-1.087-2.63 0-0.1325-2.081-11.07-2.318-13.89-1.035-12.28-2.668-13.45-2.212-24.4 0.2761-6.631-0.6439-8.892 1.313-14.31 4.031-11.17 6.987-15.56 12.23-18.17 4.25-2.12 8.237-1.832 11.98 0.8652 0.9863 0.7109 4.296 2.95 7.354 4.977 3.059 2.026 6.691 4.483 8.072 5.459 1.381 0.9763 3.685 2.385 5.12 3.13 2.531 1.315 2.624 1.335 3.137 0.671 1.128-1.459 3.849-5.554 5.321-7.509 7.372-9.791 0.4291-8.702-1.306-9.213-2.728-0.8029-3.877-1.979-6.426-4.968-5.922-6.94-8.728-14.66-9.143-24.2-0.4815-11.08 0.6327-20.02 5.498-25.1 2.085-2.18 6.499-5.345 10.54-7.555 3.418-1.871 24.38-5.782 26.22-4.97 0.919 0.4059-3.638-11.64-1.016-27.3 0.521-3.111 4.059-12.74 4.433-13.39 0.9231-1.617 16.14-6.824 20.46-9.365 4.835-2.839 15.29-9.679 16.08-14.77 1.731-11.18 2.038-15.96 2.76-16.38 1.074-0.6246 8.253 14.18 3.394 28.13-0.9589 2.754-5.532 9.149-7.58 11.82-1.475 1.926 1.728 2.826 3.57 5.607 1.675 2.529 2.777 8.711 2.992 11.91 0.2196 3.271-0.8154 9.982-1.742 11.3-0.3755 0.5332-0.5293 1.057-0.3439 1.171 0.1845 0.1137 1.434-0.0352 2.777-0.3308 1.343-0.2956 4.254-0.7663 6.468-1.046 3.943-0.4979 4.084-0.491 6.76 0.3321 4.014 1.235 23.54 5.952 11.08 60.51-4.128 18.07-23.39 41.92-25.81 40.08l-5.964-4.547-6.873 10.19c-3.508 3.603-7.291 7.08-9.522 8.753-3.521 2.64-10.56 6.798-11.52 6.798-0.2449 0-1.633 0.5693-3.084 1.265-4.195 2.012-10.48 3.661-17.13 4.098-25.77 1.67-15.94-1.442-37.28-11.78-1.683-0.8151-5.558 3.297-10.23 7.546-4.985 4.536-7.602 7.988-9.58 12.64-0.6695 1.574-1.712 3.988-2.316 5.366-1.644 3.747-2.997 8.932-3.198 12.26-0.0983 1.627-0.3151 3.042-0.4819 3.145-0.1667 0.1027-0.7921-0.8884-1.39-2.202zm28.33-45.91c3.303-0.8354 3.665-1.02 7.218-3.678 2.546-1.905 4.123-5.345 4.8-5.645 4.432-1.967-3.308-3.737-6.202-5.689-2.894-1.952-6.657-3.395-9.221-5.352-2.564-1.957-4.784-3.483-4.933-3.391-0.1495 0.0921-0.2747 1.406-0.2782 2.919-0.01023 4.413-0.6021 8.842-1.429 10.69-0.421 0.943-0.8461 2.761-0.9446 4.04-0.2282 2.962 0.4611 4.387 2.913 6.02 2.066 1.377 2.924 1.385 8.078 0.0819zm119.7-83.58c-1.076-7.225-0.185-17.16-5.814-20.78-12.99-8.344-14.41-0.0696-15.21 1.759-1.311 3.008-2.118 5.469-1.123 8.776 3.056 10.16 6.966 19.16 8.823 26.38 2.13 8.289 4.478 13.53 4.713 20.03 0.1668 4.614 0.123 5.099-0.556 6.165-0.9655 1.515-15.55 5.228-22.9 7.392-2.522 0.7431-0.288 6.122-0.577 7.892-0.2889 1.771-4.237 11.67-2.967 13.66 12.53 19.63 40.24-40.21 35.61-71.27zm-26.99 48.27c1.96-0.4713 3.792-1.046 4.072-1.278 0.2797-0.2314 0.9907-0.3842 1.58-0.3394 1.054 0.0801 5.182-1.219 5.5-1.731 0.0894-0.1442 3.772-2.066 3.036-2.554-0.7367-0.488-15.13-11.07-17.2-12.15-23.77-12.39-36.27-13.25-44.11-11.67-13.44 2.709-25.06 9.526-26.45 11.21-0.4218 0.5077 21.05-6.661 36.29 0.8708 2.816 1.392 8.63 3.783 13 8.463 3.993 4.275 7.633 8.798 10.5 9.562 3.107 0.8283 9.473 0.6488 13.79-0.3888zm-28.66-51.1c7.526-1.317 19.19-16.95 18.28-18.42-0.1228-0.1981 2.255-4.145 1.869-4.222-14.08-2.808-13.74-16.83-13.95-16.96-0.2031-0.1251-20.77 9.71-25.5 11.76-4.021 1.738 0.575 12.1 2.999 18.53 1.079 2.862 7.017 6.678 9.408 8.234 2.828 1.841 6.254 1.181 6.897 1.068zm16.22-47.72c4.064-3.203 14.89-19.23 13.74-25.74-4.679-26.5-6.696-10.1-6.996-7.731-0.1244 0.9796-0.4787 3.149-0.7874 4.822-0.3087 1.672-0.7022 4.087-0.8746 5.366-0.1723 1.279-0.6486 3.532-1.059 5.008-0.4099 1.476-1.057 3.928-1.439 5.451-0.3813 1.522-1.665 5.272-2.852 8.333-1.187 3.061-2.159 5.638-2.159 5.728 0 0.447 0.8239 0.0274 2.427-1.236z" fill="url(#linearGradient4242)"/>
   <g fill-rule="evenodd">
    <path d="m53.58 963.1c6.353-26.32 12.1-29.27 27.23-39.03-3.328-1.891-11.52-8.159-11.5-11.5 0.05726-9.742 1.668-26.72-9.076-19.66-20.39 13.39-13.01 55.97-6.656 70.19z" fill="url(#linearGradient4244)"/>
    <path d="m75.93 920.7c8.982 6.786 16.92 12.79 22.55 15.97 54.94 2.778 68.66-27.59 69.66-52.49-4.89 0.2245-13.22-0.973-17.71-7.74-11.21 3.681-45.17 14-45.76 16.32-3.065 12.04-12.18 21.76-28.74 27.94z" fill="url(#linearGradient4246)"/>
    <path d="m171.3 910.6c33.19-24.7 28.91-74.16 29.45-76.69 1.363-6.439-6.65-28.25-16.27-24.25-16.02 6.663 11.28 44.44 7.614 65.17-0.7634 4.319-13.99 7.503-22.98 8.899-1.037 0.161-0.1163 14.1-4.627 20.51-0.6457 0.9182 6.21 6.819 6.817 6.367z" fill="url(#linearGradient4248)"/>
    <path d="m175.9 907.2c42.49-41.75 20.98-116.3 6.146-94.51 20.38-4.121 23.62 64.27-6.146 94.51z" fill="url(#linearGradient4250)"/>
    <path d="m95.22 907.8c0.786-1.061-13.88-6.083-22.75-14.06-0.9829-0.885-1.141 12.91-2.07 18.67-0.5771 3.575 5.492 7.174 6.88 7.622 1.151 0.3719 14.71-7.869 17.94-12.22z" fill="url(#linearGradient4252)"/>
    <path d="m83.59 868c-5.099-25.84 4.179-41.04 41.36-46.38 0.1802 0.5688 41.32-13.26 55.79-13.35-3.923 6.233 0.0433 21.62 4.809 34.28 0 0-34.83 9.088-102 25.45z" fill="url(#linearGradient4254)"/>
    <path d="m101.7 863.9c4.412-1.581 17.01-5.39 32.05-0.1519 10.31 3.588 16.22 12.63 20.67 16.11 10.48 8.195 29.82-0.9084 33.32-0.8534 1.438 0.0226-25.97-24.6-46.63-25.85-27.78-1.675-45.11 12.78-39.42 10.74z" fill="url(#linearGradient4256)"/>
    <path d="m169.4 741.4c-0.1528 8.404-2.797 28.46-11.31 42.17-3.893 6.271 14.52-8.277 16.5-20.78 1.09-6.878-5.069-28.09-5.195-21.39z" fill="url(#linearGradient4258)"/>
    <path d="m141.8 833.1c9.239-4.718 17.66-10.92 22.99-22.44 0.9032-1.95-4.4-0.0586-8.476-5.844-4.036-5.729-3.083-11.54-6.54-11.08-10.8 1.453-25.2 11.64-25.2 11.64s0.8282 11.14 3.748 15.67c6.019 9.339 13.48 12.05 13.48 12.05z" fill="url(#linearGradient4260)"/>
    <path d="m156.1 803.8c2.726 9.889 17.87 8.097 14.71-11.15-1.365 1.996-4.776 12.96-14.71 11.15z" fill="url(#linearGradient4262)" opacity=".5522"/>
    <path d="m140.5 832.3c-5.101-3.469-9.504-7.784-12.33-12.35-2.821-4.565-4.059-27.85 0.6868-33.63 2.608-6.364 11.84-12.51 22.1-15.23-19.49 22.61-13.18 56.87 4.074 53.54 0.8621-0.1665-12.83 7.73-14.53 7.679z" fill="url(#linearGradient4264)"/>
    <path d="m72.32 893c3.809 2.819 20.24 15.54 23.86 13.52-8.41 20.56-30.55 3.142-23.86-13.52z" fill="url(#linearGradient4266)"/>
   </g>
   <path d="m140.1 777.6c-3.947 2.301-8.693 4.874-9.635 7.2-3.162 6.643-4.347 18.57-3.385 17.88 9.384-6.673 20.25-8.523 24.2-12.1 11.71-10.59 16.26-32.48 13.8-29.24-7.969 10.51-20.91 13.88-24.98 16.25zm-61.41 147s-11.08-7.664-10.88-10.12c1.697-20.43-1.929-21.62-3.757-21.41-2.208 0.2618-13.68 7.506-15.92 27.96-1.624 14.84 4.24 38.03 5.133 39.28 4.623-12.42 2.819-22.42 25.42-35.71zm121.1-90.52c-0.5513-15.32-9.774-25.85-16.04-23.38-2.657 1.046-4.442 8.179-3.508 12.6 0.8276 3.923 6.466 19.1 6.872 20.38 0.9587 3.034 7.431 21.63 6.28 30.56-1.008 7.832-23.71 10.54-23.71 10.54s-0.3815 6.374-1.164 10.68c-0.962 5.295-2.869 9.45-2.869 9.45s4.943 4.604 5.142 4.599c0.1997-5e-3 31.11-16.71 28.99-75.44zm-23.7 47.45c1.598-0.4472 11.03-2.942 10.53-3.273-3.501-2.296-7.485-5.187-14.16-10.38-37.05-28.81-70.69-4.545-70.03-4.766 6.152-2.046 12.65-3.202 21.67-2.599 7.269 0.4856 18.7 4.17 28.71 16.1 3.723 4.438 7.948 7.45 23.28 4.913zm-16.52-62.54c1.121-0.9696 5.017-8.313 4.315-8.484-9.831-2.391-10.79-6.74-11.75-11.47-0.9012-4.433-0.7622-5.065-2.625-4.45-15.05 4.97-19.21 7.701-21.51 9.612-3.607 2.993-1.077 11.04 0.3335 14.23 1.966 4.455 9.192 12.52 12.55 13.17 4.904 0.947 16.49-9.1 18.68-12.61zm10.94-27.14c-0.8155-3.335-3.435-7.631-4.133-7.631-0.6574 0-7.619 5.387-9.417 7.264-4.081 4.26-2.092 11.98 2.435 14.63 7.662 4.482 13.29-5.371 11.12-14.26zm-5.777-12.76c3.352-3.349 7.808-8.845 8.993-17.2 0.4644-3.274 0.7341-6.154-1.302-12.63-0.4719-1.5-1.906-5.815-1.96-5.246-1.059 11.22-2.611 23.69-9.936 36.93-2.299 4.157-1.063 3.402 4.205-1.86zm-78.62 66.85c-3.993 16.75 6.589 38.75 15.16 40 8.287 1.212 32.04-5.961 44.5-9.426 3.265-0.9078 5.021-0.4343-2.201-6.485-11.32-7.698-20.46-8.689-29.58-7.654-10.06 1.141-17.59 4.118-16.89 3.527 4.611-3.861 12.82-10.76 28.69-13.89 6.896-1.359 17.54-1.478 30.39 3.54 15.94 6.224 24.24 15.46 30.98 18.58 2.399 1.114 3.256 0.596 4.204-2.188 1.588-4.665-8.067-33.79-11.56-42.28-5.338-12.96 0.89-19.16-0.4712-18.86-6.603 1.455-12.43 5.699-17.31 10.07-11.93 10.68-19.2 12.96-20.28 12.87-3.407-0.2897-9.782-6.32-12.1-9.382-1.478-1.954-27.93 3.152-35.73 9.928-0.1784 0.155-6.197 4.015-7.804 11.64zm-8.475 72.93c8.724-3.66 17.27-11.44 16.53-11.57-4.529-0.7877-21.23-12.23-21.22-12.12 0.5738 5.907-0.7136 11.21-1.301 17.07-0.2449 2.442 3.01 6.224 5.996 6.614zm28.15-25.6c-1.669 3.721-3.412 18.35-27.53 27.74-0.6986 0.272 20.21 14.57 21.35 14.62 69.05 3.031 68.47-49.55 67.55-50.88-0.1326-0.1919-6.039 0.0138-10.61-2.157-0.3489-0.1655-3.452-1.765-5.302-4.174-0.6276-0.8172-0.7252-1.261-3.051-0.5854-10.76 3.128-42.9 14.66-42.41 15.44zm-21.51-25.65c-12.33-43.09 30.94-45.09 37.8-46.74 5.306-1.283 4.15-1.782 3.031-6.8-1.571-7.046-1.082-13.19 0.2651-19.77 1.274-6.226 1.93-9.374 4.62-12.5 2.168-2.516 14.38-8.27 17.41-9.723 12.91-6.19 17.84-12.99 19.27-18.34 1.014-3.773 2.498-13.07 1.831-19.72-0.1642-1.636 0.8914 0.9274 6.142 17.24 2.683 8.336 1.362 18.35-7.1 27.38-1.149 1.227-0.5918 1.47 0.9535 4.024 3.211 5.306 4.986 11.94 4.486 16.77-0.4097 3.954-2.1 7.693 0.3175 7.403 0.3495-0.042 11.03-1.659 18.34 2.988 4.95 3.147 12 9.178 10.17 34.37-4.008 55.17-30.96 67.18-31.15 67.19-0.4563 0.0156-5.5-5.221-5.798-4.604-15.46 31.93-47.35 30.78-65.14 31.12-3.556 0.0671-18.34-12.38-19.59-11.53-15.74 10.76-20.11 13.45-26.18 40.94-0.2326-0.436-8.418-14.96-8.078-44.16 0.2784-23.93 13.35-35.22 19.16-34.56 7.054 0.7906 10.59 4.471 20.53 11 1.773 1.165 8.039 4.954 9.465 4.919 3.552-0.0838 5.975-6.61 6.555-10.83 0.5848-4.262 1.15-3.232-2.176-4.376-4.193-1.443-11.43-9.296-15.14-21.68z" fill="#2c3b54"/>
   <g fill-rule="evenodd">
    <path d="m106.1 892.8c6.475-3.533 43.23-15.03 43.56-15.75 0.2409-0.5266-43.12 17.31-52.94 10.7-0.5918-0.3985 2.293 1.721 4.902 2.257 0.1833 0.0376 0.1709 6.892-2.301 10.77-0.6931 1.088 5.267-7.157 6.771-7.978z" fill="url(#linearGradient4268)"/>
    <path d="m166 784.2c-4.029 2.813-9.585 6.743-10.72 9.773-0.67 1.787-1.122-4.992 3.452-9.03 2.577-2.275 8.093-1.319 7.269-0.7432z" fill="url(#linearGradient4270)"/>
    <path d="m160.6 806.8c4.57 1.363 8.1-1.428 10.04-7.442 0.2287-0.7109-0.5655 5.267-3.406 7.489-2.708 2.118-7.593-0.3336-6.629-0.0464z" fill="url(#linearGradient4272)"/>
    <path d="m172.2 813c6.475-3.533 13.1-2.993 18.76-2.738 3.751 0.169-7.066-4.205-19.35-3.521-1.313 1.118-5.213 7.636-10.71 14.24-0.8253 0.991 9.805-7.157 11.31-7.978z" fill="url(#linearGradient4274)"/>
    <path d="m110.6 827c3.802-0.7827 8.571-2.075 11.73-2.393 2.632-0.2653 5.929-1.747 8.463 0.9774-1.411-1.934-4.108-5.839-4.949-8.397 0.7653 3.006-2.655 3.429-3.505 3.564-19.12 3.02-30.62 8.168-36.42 17.74 10.99-8.503 23.97-11.35 24.68-11.49z" fill="url(#linearGradient5486)"/>
   </g>
  </g>
 </g>
</svg>
