<?xml version="1.0" encoding="UTF-8"?>
<svg width="275.63" height="95.287" fill="#eeeeee" version="1.1" viewBox="0 0 72.927 25.211" xmlns="http://www.w3.org/2000/svg">
 <g transform="matrix(1.9586 0 0 1.9586 -4.9611 92.977)" fill="#fff" style="shape-inside:url(#rect1111);white-space:pre" aria-label="pax:nion">
  <path d="m7.8739-39.128-1.6616 1.3123-0.8255-0.3175v2.4024l-1.143 0.45508v-6.8686l-0.35983-0.37042 0.78316-0.75141 0.83608 0.60325 0.81491-0.60325 1.3547 1.1218v2.9951zm-1.3335-2.6141-0.87841-0.80433-0.27517 0.15875v3.7571l0.85725 0.3175 0.29633-0.24342z" style="font-variant-caps:normal;font-variant-east-asian:normal;font-variant-ligatures:normal;font-variant-numeric:normal"/>
  <path d="m12.414-38.694-1.016 0.80433-0.98425-0.74083-1.143 0.74083q-0.32808-0.09525-0.58208-0.28575-0.21167-0.16933-0.39158-0.46566-0.17992-0.29633-0.17992-0.77258t0.15875-0.77258q0.16933-0.29633 0.37042-0.47625 0.23283-0.20108 0.52916-0.30692-0.17992-0.09525-0.30692-0.21167-0.11642-0.10583-0.21167-0.254-0.09525-0.15875-0.09525-0.34925 0-0.13758 0.11642-0.29633 0.11642-0.16933 0.29633-0.33867t0.381-0.3175q0.21167-0.15875 0.39158-0.27517 0.17992-0.11642 0.30692-0.1905t0.14817-0.07408l1.778 1.3652-0.24342 0.10583v2.8787l0.30692 0.28575zm-1.7992-1.3123q-0.11642 0.15875-0.23283 0.23283-0.10583 0.0635-0.20108 0.0635-0.11642 0-0.20108-0.08467-0.084666-0.09525-0.084666-0.21167 0-0.08467 0.052917-0.127 0.052916-0.05292 0.127-0.08467 0.08467-0.04233 0.1905-0.05292v-0.23283q-0.09525-0.08467-0.22225-0.13758-0.11642-0.0635-0.24342-0.0635-0.09525 0-0.20108 0.05292t-0.20108 0.17992q-0.09525 0.11642-0.15875 0.3175-0.052917 0.1905-0.052917 0.48683 0 0.30692 0.09525 0.51858 0.09525 0.20108 0.20108 0.32808 0.11642 0.11642 0.21167 0.14817t0.09525-0.02117l0.8255-0.29633zm0-1.9685-0.77258-0.71966q-0.17992 0.05292-0.3175 0.16933-0.11642 0.09525-0.22225 0.254-0.09525 0.14817-0.09525 0.37042 0 0.27517 0.21167 0.51858 0.22225 0.23283 0.47625 0.41275 0.26458 0.16933 0.48683 0.27517 0.22225 0.10583 0.23283 0.10583z" style="font-variant-caps:normal;font-variant-east-asian:normal;font-variant-ligatures:normal;font-variant-numeric:normal"/>
  <path d="m15.219-41.054q0.24342 0.43392 0.508 0.85725 0.27517 0.41275 0.55033 0.74083t0.55033 0.53975q0.27516 0.20108 0.52916 0.20108 0.14817 0 0.26458-0.07408-0.20108 0.23283-0.41275 0.42333-0.17992 0.15875-0.40216 0.29633-0.22225 0.127-0.43392 0.127-0.16933 0-0.33867-0.15875-0.15875-0.15875-0.34925-0.4445-0.1905-0.29633-0.43392-0.70908t-0.56092-0.93133l-1.2912 2.1378-0.86783-0.43392 0.67733-1.143 0.49742 0.4445 0.80433-1.3017q-0.22225-0.35983-0.45508-0.68792-0.22225-0.33866-0.43392-0.59266-0.20108-0.26458-0.39158-0.41275-0.17992-0.15875-0.3175-0.15875-0.08467 0-0.14817 0.0635 0.15875-0.254 0.33866-0.45508 0.14817-0.17992 0.33867-0.3175 0.1905-0.14817 0.381-0.14817 0.14817 0 0.26458 0.13758 0.127 0.127 0.254 0.37042 0.13758 0.23283 0.30692 0.5715 0.16933 0.33866 0.40216 0.75141l1.0901-1.7568 1.3123 0.58208-0.66675 0.64558-0.75141-0.508-0.81491 1.3441z" style="font-variant-caps:normal;font-variant-east-asian:normal;font-variant-ligatures:normal;font-variant-numeric:normal"/>
  <path d="m20.172-41.625q-0.43392 0-0.73025-0.29633t-0.29633-0.71966q0-0.43392 0.29633-0.73025t0.73025-0.29633q0.42333 0 0.71966 0.29633t0.29633 0.73025q0 0.42333-0.29633 0.71966t-0.71966 0.29633zm0 1.6616q0.42333 0 0.71966 0.29633t0.29633 0.71966q0 0.43392-0.29633 0.73025t-0.71966 0.29633q-0.43392 0-0.73025-0.29633t-0.29633-0.73025q0-0.42333 0.29633-0.71966t0.73025-0.29633z" style="font-variant-caps:normal;font-variant-east-asian:normal;font-variant-ligatures:normal;font-variant-numeric:normal"/>
  <path d="m27.633-38.493-0.71966 0.75142-1.1853-0.84666 0.26458-0.22225h0.05292v-3.2914l-0.40216-0.42333-0.71966 0.59266v2.8469l0.48683 0.40217-0.8255 0.80433-1.1747-0.70908 0.34925-0.43392v-3.048l-0.46567-0.45508 0.77258-0.73025 0.83608 0.635v0.37042l1.2382-0.92075 1.0054 0.9525v3.4396h0.02117z" style="font-variant-caps:normal;font-variant-east-asian:normal;font-variant-ligatures:normal;font-variant-numeric:normal"/>
  <path d="m29.898-38.694-0.83608 0.83608-1.2382-0.78316 0.35983-0.35983v-3.1115l-0.40216-0.3175 0.8255-0.78316 1.0266 0.66675-0.28575 0.30692v3.1115zm-1.1218-5.3446-0.91016-0.68791 0.89958-0.71966 0.89958 0.71966z" style="font-variant-caps:normal;font-variant-east-asian:normal;font-variant-ligatures:normal;font-variant-numeric:normal"/>
  <path d="m33.644-39.138 0.17992 0.02117-1.9897 1.3017-1.8732-1.1747 0.28575-0.29633v-2.5717l-0.28575-0.17992 2.3389-1.143 1.6087 1.0266-0.28575 0.10583zm-1.1218-2.6564-1.1324-0.81491v3.7253l1.1324 0.43392z" style="font-variant-caps:normal;font-variant-east-asian:normal;font-variant-ligatures:normal;font-variant-numeric:normal"/>
  <path d="m38.417-38.493-0.71966 0.75142-1.1853-0.84666 0.26458-0.22225h0.05292v-3.2914l-0.40217-0.42333-0.71966 0.59266v2.8469l0.48683 0.40217-0.8255 0.80433-1.1747-0.70908 0.34925-0.43392v-3.048l-0.46566-0.45508 0.77258-0.73025 0.83608 0.635v0.37042l1.2382-0.92075 1.0054 0.9525v3.4396h0.02117z" style="font-variant-caps:normal;font-variant-east-asian:normal;font-variant-ligatures:normal;font-variant-numeric:normal"/>
 </g>
</svg>
