<?xml version="1.0" encoding="UTF-8"?>
<svg width="1024" height="1024" version="1.1" viewBox="0 0 270.93 270.93" xmlns="http://www.w3.org/2000/svg">
 <rect x="7.1208e-6" y="7.1208e-6" width="270.93" height="270.93" ry="0" stroke-width=".27838"/>
 <g transform="matrix(22.457 0 0 22.457 -543.42 -938.77)" fill="#fff" style="font-variant-caps:normal;font-variant-east-asian:normal;font-variant-ligatures:normal;font-variant-numeric:normal;shape-inside:url(#rect835);white-space:pre" aria-label="Φ">
  <path d="m28.32 50.571v0.86783h3.7994v-0.86783l-0.254-0.02117c-0.56092-0.07408-0.71966-0.22225-0.71966-0.71966v-0.04233h0.03175c1.3335-0.02117 2.0532-0.127 2.5717-0.39158 0.62442-0.30692 1.0266-0.94191 1.0266-1.6298 0-0.67733-0.40217-1.3123-1.016-1.5663-0.56092-0.24342-1.4605-0.37042-2.6141-0.37042 0.01058-0.48683 0.15875-0.635 0.71966-0.70908l0.254-0.02117v-0.86783h-3.7994v0.86783l0.254 0.02117c0.56092 0.07408 0.71966 0.22225 0.71966 0.70908-1.1324 0.02117-1.9367 0.127-2.4765 0.33866-0.6985 0.254-1.1324 0.87841-1.1324 1.6192 0 0.70908 0.41275 1.3441 1.0477 1.6192 0.5715 0.24342 1.2912 0.35983 2.5612 0.381 0 0.53975-0.13758 0.68791-0.71966 0.762zm2.8257-3.9158c1.1747 0.10583 1.5981 0.41275 1.5981 1.1536 0 0.75141-0.43392 1.1112-1.4076 1.1747-0.11642 0.01058-0.13758 0.01058-0.1905 0.02117zm-1.8521 2.3495h-0.03175c-0.42333-0.04233-0.70908-0.09525-0.96308-0.1905-0.35983-0.13758-0.58208-0.49742-0.58208-0.97366 0-0.70908 0.41275-1.0583 1.397-1.1536 0.127-0.01058 0.13758-0.01058 0.17992-0.01058z" fill="#fff" style="font-variant-caps:normal;font-variant-east-asian:normal;font-variant-ligatures:normal;font-variant-numeric:normal"/>
 </g>
</svg>
